<?xml version="1.0" encoding="utf-8"?>
<!-- Generator: Adobe Illustrator 17.0.0, SVG Export Plug-In . SVG Version: 6.00 Build 0)  -->
<!DOCTYPE svg PUBLIC "-//W3C//DTD SVG 1.1//EN" "http://www.w3.org/Graphics/SVG/1.1/DTD/svg11.dtd">
<svg version="1.1" id="Capa_1" xmlns="http://www.w3.org/2000/svg" xmlns:xlink="http://www.w3.org/1999/xlink" x="0px" y="0px"
	 width="400px" height="400px" viewBox="0 0 400 400" enable-background="new 0 0 400 400" xml:space="preserve">
<path fill="#A3A3A3" d="M203.216,252.547c-1.609-1.726-2.712-2.947-3.856-4.128c-8.342-8.619-16.673-17.249-25.054-25.83
	c-1.984-2.031-3.076-4.234-0.75-6.457c2.119-2.025,4.277-1.018,6.081,0.894c0.914,0.969,1.854,1.914,2.782,2.87
	c14.041,14.467,27.935,29.081,42.166,43.357c12.191,12.23,27.065,16.078,43.6,11.411c16.405-4.631,26.602-15.873,30.784-32.323
	c5.771-22.698-8.238-46.426-31.52-52.57c-30.683-8.098-61.536-15.549-92.277-23.429c-3.042-0.78-4.392,0.024-5.803,2.617
	c-3.732,6.861-7.664,13.618-11.727,20.289c-1.441,2.366-1.581,3.96,0.632,5.945c3.093,2.775,5.833,5.941,8.771,8.892
	c1.977,1.986,3.17,4.222,0.771,6.445c-2.401,2.225-4.93,1.019-6.363-1.27c-9.952-15.911-27.207-15.147-42.515-18.823
	c-3.23-0.776-6.528-1.269-9.761-2.036c-5.332-1.266-8.39-4.778-7.63-10.009c3.152-21.722,13.513-39.449,30.705-53.045
	c4.016-3.176,8.895-2.008,12.834,2.386c7.894,8.808,15.751,17.65,23.527,26.562c1.922,2.203,3.963,3.616,6.935,4.355
	c31.125,7.74,62.229,15.571,93.288,23.574c25.653,6.61,42.257,31.305,38.639,57.046c-3.66,26.036-26.053,45.373-52.311,44.939
	c-11.845-0.196-22.55-3.988-31.682-11.642c-2.14-1.793-3.116-2.028-4.644,0.658c-9.946,17.482-20.151,34.817-30.062,52.319
	c-5.308,9.373-2.267,20.447,6.632,25.628c9.084,5.289,20.198,2.268,25.826-7.326c9.251-15.771,18.302-31.659,27.439-47.497
	c0.665-1.152,1.273-2.344,2.023-3.439c1.332-1.944,3.252-2.419,5.223-1.3c2.066,1.173,2.245,3.137,1.312,5.219
	c-0.204,0.454-0.465,0.884-0.714,1.316c-9.728,16.84-19.26,33.799-29.264,50.474c-5.865,9.777-15.079,13.933-26.356,12.471
	c-10.923-1.416-19.379-9.624-21.831-20.571c-1.522-6.796-0.257-13.188,3.25-19.195c5.029-8.613,9.993-17.264,14.974-25.905
	c0.796-1.381,1.886-2.517-0.415-3.931c-8.204-5.04-11.887-12.544-10.228-22.044C188.193,260.585,194.038,255.269,203.216,252.547z
	 M147.668,188.484c1.434,0.477,2.133-0.839,2.911-2.196c4.292-7.488,8.569-14.985,12.981-22.403c1.017-1.71,0.972-2.816-0.384-4.322
	c-7.905-8.773-15.739-17.611-23.518-26.496c-1.527-1.744-2.727-1.948-4.53-0.383c-13.797,11.978-22.549,26.818-25.789,44.863
	c-0.312,1.738-0.121,3.101,1.723,3.483C123.09,183.523,135.133,185.941,147.668,188.484z M207.34,260.114
	c-5.799-0.052-10.752,3.344-12.656,8.68c-1.902,5.33-0.197,11.246,4.126,14.832c2.48,2.057,4.193,2.609,5.949-1.023
	c2.301-4.761,5.216-9.225,7.864-13.819C215.674,263.487,213.653,260.171,207.34,260.114z"/>
<path fill="#A3A3A3" d="M288.863,234.913c0.075,15.481-12.244,27.936-27.769,28.077c-15.259,0.138-27.939-12.46-28.075-27.892
	c-0.135-15.376,12.327-27.862,27.893-27.946C276.496,207.067,288.787,219.275,288.863,234.913z M261.072,255.268
	c11.188-0.046,20.407-9.321,20.222-20.346c-0.188-11.26-9.404-20.418-20.397-20.27c-11.198,0.151-20.285,9.337-20.22,20.44
	C240.743,246.254,249.901,255.313,261.072,255.268z"/>
<path fill="#A3A3A3" d="M232.926,305.83c-0.023,6.312-5.201,11.452-11.423,11.338c-6.258-0.114-11.184-5.33-11.05-11.699
	c0.129-6.108,5.084-11.03,11.158-11.083C227.824,294.333,232.949,299.516,232.926,305.83z M225.4,305.759
	c-0.493-2.144-1.547-3.616-3.992-3.483c-2.228,0.122-3.322,1.634-3.297,3.543c0.026,1.899,1.135,3.412,3.366,3.492
	C223.925,309.398,224.937,307.885,225.4,305.759z"/>
<path fill="#A3A3A3" d="M86.195,155.273c-4.875-1.161-10.709-2.463-16.487-3.975c-1.842-0.482-2.476-2.145-2.191-3.985
	c0.331-2.136,1.79-3.449,3.821-3.063c5.863,1.112,11.694,2.429,17.483,3.882c1.988,0.499,2.958,2.248,2.416,4.295
	C90.725,154.367,89.332,155.498,86.195,155.273z"/>
<path fill="#A3A3A3" d="M94.592,105.318c0.47,0.27,1.492,0.585,2.122,1.264c3.725,4.019,7.398,8.086,11.004,12.212
	c1.658,1.897,1.726,3.968-0.286,5.684c-1.875,1.599-3.771,1.061-5.292-0.59c-3.714-4.032-7.363-8.125-10.991-12.235
	c-1.235-1.399-1.302-3.079-0.385-4.637C91.465,105.823,92.651,105.182,94.592,105.318z"/>
<path fill="#A3A3A3" d="M100.206,136.61c-0.819,3.213-2.748,4.734-5.559,3.279c-4.854-2.512-9.517-5.41-14.162-8.302
	c-1.691-1.053-2.385-2.756-1.313-4.747c0.887-1.647,2.435-2.702,4.093-1.964c5.61,2.497,10.842,5.719,15.86,9.251
	C99.797,134.6,99.905,135.874,100.206,136.61z"/>
<path fill="#A3A3A3" d="M199.502,325.258c0.818,0.392,2.032,0.884,3.16,1.528c4.015,2.292,8.049,4.559,11.978,6.992
	c1.883,1.166,2.683,2.974,1.435,5.105c-1.219,2.082-3.217,2.466-5.149,1.417c-4.787-2.6-9.484-5.372-14.138-8.204
	c-1.627-0.99-1.786-2.753-1.194-4.432C196.137,326.124,197.412,325.387,199.502,325.258z"/>
<path fill="#A3A3A3" d="M271.359,236.332c-0.592-0.246-1.542-0.531-2.383-1.009c-4.312-2.446-8.627-4.888-12.875-7.442
	c-1.973-1.186-2.577-3.092-1.481-5.136c1.108-2.066,3.067-2.598,5.085-1.488c4.777,2.626,9.514,5.336,14.148,8.204
	c1.448,0.897,2.142,2.526,1.312,4.351C274.498,235.283,273.38,236.153,271.359,236.332z"/>
<path fill="#A3A3A3" d="M267.883,245.686c-0.634,2.829-2.411,4.587-5.273,3.141c-5.003-2.526-9.811-5.465-14.565-8.446
	c-1.716-1.076-2.042-3.005-0.888-4.825c0.977-1.542,2.588-2.455,4.235-1.561c5.213,2.828,10.311,5.87,15.418,8.889
	C267.745,243.438,267.761,244.558,267.883,245.686z"/>
</svg>
